<svg xmlns="http://www.w3.org/2000/svg" viewBox="0 0 814.56 243.13"><defs><style>.cls-1{fill:#fff;}</style></defs><title>Asset 1</title><g id="Layer_2" data-name="Layer 2"><g id="Layer_1-2" data-name="Layer 1"><path class="cls-1" d="M780.61,67V47.39h33.84v6c0,41,.31,82-.12,122.93-.33,30.52-17.61,54.5-48,63.08-24.69,7-48,4.16-69.85-9-7-4.21-13-10.08-20.28-15.86l26.42-19.43c7.17,6.32,14.63,12.29,24.22,14.49,11.82,2.72,23.52,3,34.8-2.44,12.81-6.13,18.76-18.9,18.71-31.9,0-3.55,0-7.11,0-10.46-5.46,4.43-10.39,9.77-16.43,13.09-24.85,13.64-55.64,7.88-75.52-13-14.91-15.7-21.33-34.53-19.66-55.61,2.09-26.34,14-47.64,38.56-59.08,22.53-10.46,44.82-9.2,64.83,7.25A38,38,0,0,1,776,61.83C777.17,63.18,778.39,64.5,780.61,67Zm-38.24,87.27c21.08.93,39-15.74,38.76-40-.27-23-15.78-39.72-39-39.73-22.64,0-38.44,18.5-38.88,39.62C702.85,135.67,721,155.22,742.37,154.22Z"/><path class="cls-1" d="M213.07,195.31c16.07,15.43,34.65,20.3,55.62,12.8,14-5,20.33-16.08,21.76-30.22.43-4.26.06-8.61.06-13.51-3.56,3.3-6.52,6.46-9.9,9.09-12.94,10-27.67,13.57-43.72,10.88-30.91-5.18-49.84-23.89-56.68-53.82-8.21-35.9,10.3-75.28,49.43-84.73C250.09,40.86,269.41,44,284.88,60c1.69,1.76,3.12,3.76,5.34,6.47v-19h34.27v5.2c0,40.82.13,81.65-.05,122.47-.09,18.72-6.05,35.2-19.89,48.44-10.88,10.41-24.15,15.95-38.61,18.25-21.79,3.45-42.49-.23-61.06-12.66-6.26-4.19-11.87-9.37-18.42-14.61Zm39.26-41.11c21.11,1.18,39.7-16.79,39.17-40.75-.48-21.91-16.56-38.84-39.25-39.13C230.2,74,213,93.18,213.17,114.7,213.34,137.38,232.14,155.09,252.33,154.2Z"/><path class="cls-1" d="M0,185.13c5.18-11.75,10.1-22.82,15-33.91Q34.33,107,53.67,62.79c8.71-19.85,17.62-39.6,26.17-59.51C81.78-1.26,85.22.2,88.19.3a5.75,5.75,0,0,1,4.14,2.86c8.71,19.31,17.24,38.7,25.76,58.1q16.8,38.31,33.53,76.64Q161.31,160,171,182.15c.38.88.64,1.81,1.05,3-11.79,0-23.28.13-34.76-.16-1.56,0-3.81-1.84-4.48-3.38-7.91-18-15.57-36.15-23.31-54.25-7.67-17.94-15.37-35.86-23.36-54.5-5.1,12-9.83,23.32-14.66,34.58Q55.35,145,39.1,182.53c-.47,1.09-1.91,2.47-2.91,2.49C24.41,185.19,12.63,185.13,0,185.13Z"/><path class="cls-1" d="M552.48,185H517.9V47.48h34.29V65.71c6-8,12.27-14.51,21.1-17.91,29.67-11.44,63.18,1.06,70.15,36.81a65.77,65.77,0,0,1,1,12.3c.08,29.15,0,58.29,0,87.83h-34V179.6c0-24.81,0-49.63,0-74.45a45.88,45.88,0,0,0-1.31-10.77c-4-16.07-15.53-20.08-28.85-19.68-19.53.58-28,15.5-27.88,31.07.27,24.48.06,49,.06,73.45Z"/><path class="cls-1" d="M449.51,47.37h33.78V184.78H449.75V165.64c-6.16,9-13.1,15-21.89,18.75-17.69,7.56-42.13,5-56.51-10a44.66,44.66,0,0,1-12.69-27.74c-1-12.23-1-24.55-1.1-36.84-.16-20.64-.05-41.29-.05-62.32h34v5.15c0,24.32-.21,48.64.08,73,.09,8.37,1.15,16.77,7.26,23.47,8.47,9.28,19.18,10.65,30.44,7.69,10.81-2.83,17.22-10.49,19.13-21.57a70.68,70.68,0,0,0,1-11.8C449.56,98.26,449.51,73.11,449.51,47.37Z"/></g></g></svg>